<?xml version="1.0" encoding="utf-8"?>
<!-- Generator: Adobe Illustrator 20.1.0, SVG Export Plug-In . SVG Version: 6.00 Build 0)  -->
<svg version="1.1" id="Layer_1" xmlns="http://www.w3.org/2000/svg" xmlns:xlink="http://www.w3.org/1999/xlink" x="0px" y="0px"
	 viewBox="0 0 792 612" style="enable-background:new 0 0 792 612;" xml:space="preserve">
<style type="text/css">
	.st0{opacity:0.3;fill:url(#SVGID_1_);}
	.st1{opacity:0.3;fill:url(#SVGID_2_);}
	.st2{opacity:0.3;fill:url(#SVGID_3_);}
	.st3{opacity:0.3;fill:url(#SVGID_4_);}
	.st4{opacity:0.3;fill:url(#SVGID_5_);}
	.st5{opacity:0.3;fill:url(#SVGID_6_);}
	.st6{opacity:0.3;fill:url(#SVGID_7_);}
	.st7{opacity:0.3;fill:url(#SVGID_8_);}
	.st8{fill:none;stroke:#000000;stroke-width:0.25;stroke-miterlimit:10;}
	.st9{fill:none;stroke:#000000;stroke-width:0.25;stroke-miterlimit:10;stroke-dasharray:2.012267e-02,2.0022,2.0123,0;}
	
		.st10{fill:none;stroke:#000000;stroke-width:0.25;stroke-miterlimit:10;stroke-dasharray:2.0123,2.0022,2.012267e-02,2.0022,2.0123,0;}
	.st11{fill:none;stroke:#000000;stroke-width:0.25;stroke-miterlimit:10;stroke-dasharray:1.990675e-02,1.9807,1.9907,0;}
	
		.st12{fill:none;stroke:#000000;stroke-width:0.25;stroke-miterlimit:10;stroke-dasharray:1.9907,1.9807,1.990675e-02,1.9807,1.9907,0;}
</style>
<linearGradient id="SVGID_1_" gradientUnits="userSpaceOnUse" x1="540.6147" y1="148.6036" x2="501.9481" y2="233.2702">
	<stop  offset="0" style="stop-color:#EF816E"/>
	<stop  offset="0.5134" style="stop-color:#FBDD8C"/>
	<stop  offset="1" style="stop-color:#BCDDF4"/>
</linearGradient>
<polygon class="st0" points="515.5,185.8 515.5,185.8 496,171.5 488.7,198 443.2,202.8 480.6,236.2 516.3,281.7 520.4,263.8 
	554.5,267.5 527.7,240.2 574.1,234.5 536.7,219.5 600.1,157.3 "/>
<linearGradient id="SVGID_2_" gradientUnits="userSpaceOnUse" x1="674.2048" y1="220.8581" x2="635.5381" y2="305.5248" gradientTransform="matrix(0.519 0.158 -0.1942 0.6377 303.6306 -35.4502)">
	<stop  offset="0" style="stop-color:#EF816E"/>
	<stop  offset="0.5134" style="stop-color:#FBDD8C"/>
	<stop  offset="1" style="stop-color:#BCDDF4"/>
</linearGradient>
<polygon class="st1" points="590.4,231.7 590.4,231.7 583,219.5 574.1,235.2 549.5,231.1 562.5,258.3 572.2,293 577.8,282.2 
	594.8,289.9 586.1,268.3 611.3,272 594.8,256.5 639.8,226.9 "/>
<linearGradient id="SVGID_3_" gradientUnits="userSpaceOnUse" x1="355.4339" y1="211.4183" x2="316.7673" y2="296.085" gradientTransform="matrix(0.4295 -0.3314 0.4073 0.5277 139.9335 226.5392)">
	<stop  offset="0" style="stop-color:#EF816E"/>
	<stop  offset="0.5134" style="stop-color:#FBDD8C"/>
	<stop  offset="1" style="stop-color:#BCDDF4"/>
</linearGradient>
<polygon class="st2" points="383,248.2 383,248.2 368.9,247.2 376.5,263.6 358.9,281.2 388.6,286.4 422.5,298.6 416.9,287.8 
	433.1,278.4 410.5,272.9 428,254.6 405.9,259 407.8,205.2 "/>
<linearGradient id="SVGID_4_" gradientUnits="userSpaceOnUse" x1="699.9228" y1="189.3917" x2="577.2562" y2="88.0584">
	<stop  offset="0" style="stop-color:#EF816E"/>
	<stop  offset="0.5134" style="stop-color:#FBDD8C"/>
	<stop  offset="1" style="stop-color:#BCDDF4"/>
</linearGradient>
<polygon class="st3" points="606.5,132.4 606.5,132.4 587,118.2 579.7,144.6 549.5,163.2 571.6,182.8 607.3,228.4 611.4,210.5 
	626,206 618.7,186.9 638,177 627.7,166.2 708.5,81 "/>
<linearGradient id="SVGID_5_" gradientUnits="userSpaceOnUse" x1="223.7504" y1="280.1461" x2="101.0837" y2="178.8128" gradientTransform="matrix(-0.2127 -0.5815 0.3427 -0.1254 299.6235 367.4499)">
	<stop  offset="0" style="stop-color:#EF816E"/>
	<stop  offset="0.5134" style="stop-color:#FBDD8C"/>
	<stop  offset="1" style="stop-color:#BCDDF4"/>
</linearGradient>
<polygon class="st4" points="348.4,263.7 348.4,263.7 347.7,276.8 358.3,277.7 371.1,293 373.1,277.7 381.1,251.2 374.1,251.1 
	369.5,243.1 364.5,249.8 357,239.8 355.5,247.2 309.1,210.8 "/>
<linearGradient id="SVGID_6_" gradientUnits="userSpaceOnUse" x1="483.2659" y1="268.4646" x2="601.1058" y2="268.4646">
	<stop  offset="0" style="stop-color:#EF816E"/>
	<stop  offset="0.5134" style="stop-color:#FBDD8C"/>
	<stop  offset="1" style="stop-color:#BCDDF4"/>
</linearGradient>
<polygon class="st5" points="536.6,243.1 536.6,243.1 527.2,228.4 515.3,244.3 483.3,235.5 499.7,267.9 511.8,308 519.2,297 
	541.3,308.6 530.4,283.1 563.1,291.5 541.9,271.5 601.1,246.3 "/>
<linearGradient id="SVGID_7_" gradientUnits="userSpaceOnUse" x1="164.8128" y1="322.7602" x2="248.8814" y2="322.7602" gradientTransform="matrix(-0.8278 0.561 -0.561 -0.8278 705.618 495.7238)">
	<stop  offset="0" style="stop-color:#EF816E"/>
	<stop  offset="0.5134" style="stop-color:#FBDD8C"/>
	<stop  offset="1" style="stop-color:#BCDDF4"/>
</linearGradient>
<polygon class="st6" points="358.2,371.9 358.2,371.9 374.3,378.8 375.2,359 406.6,348.3 374.9,330.7 368.9,293 342.3,317.5 
	317.6,320.4 340.9,335.3 309.1,346.7 337.9,351.4 326.9,380.5 "/>
<linearGradient id="SVGID_8_" gradientUnits="userSpaceOnUse" x1="556.3805" y1="372.7642" x2="470.3805" y2="270.7642">
	<stop  offset="0" style="stop-color:#EF816E"/>
	<stop  offset="0.5134" style="stop-color:#FBDD8C"/>
	<stop  offset="1" style="stop-color:#BCDDF4"/>
</linearGradient>
<polygon class="st7" points="469.6,252.5 469.6,252.5 452.8,247.7 454.4,267.5 424.7,282.1 458.4,295.5 469.2,332 492.4,304.3 
	516.6,298.3 491.5,286.5 521.6,271.1 492.4,270.1 499.6,239.9 "/>
<g>
	<g>
		<line class="st8" x1="110.3" y1="308.6" x2="111.3" y2="308.6"/>
		<line class="st9" x1="113.3" y1="308.6" x2="117.3" y2="308.6"/>
		<line class="st10" x1="117.3" y1="308.6" x2="680.7" y2="308.6"/>
		<line class="st8" x1="680.7" y1="308.6" x2="681.7" y2="308.6"/>
	</g>
</g>
<g>
	<g>
		<line class="st8" x1="396" y1="39.1" x2="396" y2="40.1"/>
		<line class="st11" x1="396" y1="42.1" x2="396" y2="46.1"/>
		<line class="st12" x1="396" y1="46.1" x2="396" y2="579.6"/>
		<line class="st8" x1="396" y1="579.6" x2="396" y2="580.6"/>
	</g>
</g>
</svg>
