<?xml version="1.0"?>
<svg width="250mm" height="200mm" viewBox="0 0   2750    1500"
     xmlns="http://www.w3.org/2000/svg"
     xmlns:xlink="http://www.w3.org/1999/xlink"
     xmlns:ev="http://www.w3.org/2001/xml-events">
<g font-family="Verdana" font-size="8" >
  <line x1="   300" y1="   590" x2="   300" y2="   670" style = "stroke:silver  ;"/>
  <line x1="   300" y1="   590" x2="   300" y2="   750" style = "stroke:silver  ;"/>
  <line x1="   300" y1="   590" x2="   300" y2="   830" style = "stroke:silver  ;"/>
  <line x1="   300" y1="   590" x2="   300" y2="   910" style = "stroke:silver  ;"/>
  <line x1="   300" y1="   670" x2="   300" y2="   750" style = "stroke:silver  ;"/>
  <line x1="   300" y1="   670" x2="   300" y2="   830" style = "stroke:silver  ;"/>
  <line x1="   300" y1="   670" x2="   300" y2="   910" style = "stroke:silver  ;"/>
  <line x1="   300" y1="   750" x2="   300" y2="   830" style = "stroke:silver  ;"/>
  <line x1="   300" y1="   750" x2="   300" y2="   910" style = "stroke:silver  ;"/>
  <line x1="   300" y1="   830" x2="   300" y2="   910" style = "stroke:silver  ;"/>
  <rect x="   700" y="   420" width="   200" height="    20" style = "fill:orange; stroke: Black;"/>     1
  <text x="   702" y="   433">SWHSYS1 WATER HEATER</text>
  <rect x="   200" y="   580" width="   200" height="    20" style = "fill:snow; stroke: Black;"/>     2
  <text x="   202" y="   593">OutdoorAir:NodeList</text>
  <rect x="   200" y="   660" width="   200" height="    20" style = "fill:snow; stroke: Black;"/>     3
  <text x="   202" y="   673">OutdoorAir:NodeList</text>
  <rect x="   200" y="   740" width="   200" height="    20" style = "fill:snow; stroke: Black;"/>     4
  <text x="   202" y="   753">OutdoorAir:NodeList</text>
  <rect x="   200" y="   820" width="   200" height="    20" style = "fill:snow; stroke: Black;"/>     5
  <text x="   202" y="   833">OutdoorAir:NodeList</text>
  <rect x="   200" y="   900" width="   200" height="    20" style = "fill:snow; stroke: Black;"/>     6
  <text x="   202" y="   913">OutdoorAir:NodeList</text>
  <rect x="  1700" y="   460" width="   200" height="    20" style = "fill:wheat; stroke: Black;"/>    33
  <text x="  1702" y="   473">SWHSYS1 DEMAND SPLITTER</text>
  <rect x="  2200" y="   500" width="   200" height="    20" style = "fill:wheat; stroke: Black;"/>    34
  <text x="  2202" y="   513">SWHSYS1 DEMAND MIXER</text>
  <rect x="   450" y="   420" width="   200" height="    20" style = "fill:wheat; stroke: Black;"/>    35
  <text x="   452" y="   433">SWHSYS1 SUPPLY SPLITTER</text>
  <rect x="   950" y="   460" width="   200" height="    20" style = "fill:wheat; stroke: Black;"/>    36
  <text x="   952" y="   473">SWHSYS1 SUPPLY MIXER</text>
  <rect x="  1450" y="    20" width="   200" height="    20" style = "fill:chartreuse; stroke: Black;"/>    37
  <text x="  1452" y="    33">CORE_ZN</text>
  <rect x="  1950" y="   460" width="   200" height="    20" style = "fill:wheat; stroke: Black;"/>    42
  <text x="  1952" y="   473">CORE_ZN WATER EQUIPMENT</text>
  <rect x="  1200" y="    20" width="   200" height="    20" style = "fill:wheat; stroke: Black;"/>    43
  <text x="  1202" y="    33">PSZ-AC:1 SUPPLY AIR SPLITTER</text>
  <rect x="  1200" y="   100" width="   200" height="    20" style = "fill:wheat; stroke: Black;"/>    44
  <text x="  1202" y="   113">PSZ-AC:2 SUPPLY AIR SPLITTER</text>
  <rect x="  1200" y="   180" width="   200" height="    20" style = "fill:wheat; stroke: Black;"/>    45
  <text x="  1202" y="   193">PSZ-AC:3 SUPPLY AIR SPLITTER</text>
  <rect x="  1200" y="   260" width="   200" height="    20" style = "fill:wheat; stroke: Black;"/>    46
  <text x="  1202" y="   273">PSZ-AC:4 SUPPLY AIR SPLITTER</text>
  <rect x="  1200" y="   340" width="   200" height="    20" style = "fill:wheat; stroke: Black;"/>    47
  <text x="  1202" y="   353">PSZ-AC:5 SUPPLY AIR SPLITTER</text>
  <rect x="  1700" y="    20" width="   200" height="    20" style = "fill:wheat; stroke: Black;"/>    48
  <text x="  1702" y="    33">PSZ-AC:1 RETURN AIR MIXER</text>
  <rect x="  1700" y="   100" width="   200" height="    20" style = "fill:wheat; stroke: Black;"/>    49
  <text x="  1702" y="   113">PSZ-AC:2 RETURN AIR MIXER</text>
  <rect x="  1700" y="   180" width="   200" height="    20" style = "fill:wheat; stroke: Black;"/>    50
  <text x="  1702" y="   193">PSZ-AC:3 RETURN AIR MIXER</text>
  <rect x="  1700" y="   260" width="   200" height="    20" style = "fill:wheat; stroke: Black;"/>    51
  <text x="  1702" y="   273">PSZ-AC:4 RETURN AIR MIXER</text>
  <rect x="  1700" y="   340" width="   200" height="    20" style = "fill:wheat; stroke: Black;"/>    52
  <text x="  1702" y="   353">PSZ-AC:5 RETURN AIR MIXER</text>
  <rect x="   200" y="    20" width="   200" height="    20" style = "fill:lawngreen; stroke: Black;"/>    53
  <text x="   202" y="    33">PSZ-AC:1_OAMIXING BOX</text>
  <rect x="   200" y="   100" width="   200" height="    20" style = "fill:lawngreen; stroke: Black;"/>    54
  <text x="   202" y="   113">PSZ-AC:2_OAMIXING BOX</text>
  <rect x="   200" y="   180" width="   200" height="    20" style = "fill:lawngreen; stroke: Black;"/>    55
  <text x="   202" y="   193">PSZ-AC:3_OAMIXING BOX</text>
  <rect x="   200" y="   260" width="   200" height="    20" style = "fill:lawngreen; stroke: Black;"/>    56
  <text x="   202" y="   273">PSZ-AC:4_OAMIXING BOX</text>
  <rect x="   200" y="   340" width="   200" height="    20" style = "fill:lawngreen; stroke: Black;"/>    57
  <text x="   202" y="   353">PSZ-AC:5_OAMIXING BOX</text>
  <rect x="   950" y="    20" width="   200" height="    20" style = "fill:silver; stroke: Black;"/>    58
  <text x="   952" y="    33">PSZ-AC:1_FAN</text>
  <rect x="   950" y="   100" width="   200" height="    20" style = "fill:silver; stroke: Black;"/>    59
  <text x="   952" y="   113">PSZ-AC:2_FAN</text>
  <rect x="   950" y="   180" width="   200" height="    20" style = "fill:silver; stroke: Black;"/>    60
  <text x="   952" y="   193">PSZ-AC:3_FAN</text>
  <rect x="   950" y="   260" width="   200" height="    20" style = "fill:silver; stroke: Black;"/>    61
  <text x="   952" y="   273">PSZ-AC:4_FAN</text>
  <rect x="   950" y="   340" width="   200" height="    20" style = "fill:silver; stroke: Black;"/>    62
  <text x="   952" y="   353">PSZ-AC:5_FAN</text>
  <rect x="   450" y="    20" width="   200" height="    20" style = "fill:skyblue; stroke: Black;"/>    68
  <text x="   452" y="    33">PSZ-AC:1_COOLC DXCOIL</text>
  <rect x="   450" y="   100" width="   200" height="    20" style = "fill:skyblue; stroke: Black;"/>    69
  <text x="   452" y="   113">PSZ-AC:2_COOLC DXCOIL</text>
  <rect x="   450" y="   180" width="   200" height="    20" style = "fill:skyblue; stroke: Black;"/>    70
  <text x="   452" y="   193">PSZ-AC:3_COOLC DXCOIL</text>
  <rect x="   450" y="   260" width="   200" height="    20" style = "fill:skyblue; stroke: Black;"/>    71
  <text x="   452" y="   273">PSZ-AC:4_COOLC DXCOIL</text>
  <rect x="   450" y="   340" width="   200" height="    20" style = "fill:skyblue; stroke: Black;"/>    72
  <text x="   452" y="   353">PSZ-AC:5_COOLC DXCOIL</text>
  <rect x="   700" y="    20" width="   200" height="    20" style = "fill:salmon; stroke: Black;"/>    73
  <text x="   702" y="    33">PSZ-AC:1_HEATC</text>
  <rect x="   700" y="   100" width="   200" height="    20" style = "fill:salmon; stroke: Black;"/>    74
  <text x="   702" y="   113">PSZ-AC:2_HEATC</text>
  <rect x="   700" y="   180" width="   200" height="    20" style = "fill:salmon; stroke: Black;"/>    75
  <text x="   702" y="   193">PSZ-AC:3_HEATC</text>
  <rect x="   700" y="   260" width="   200" height="    20" style = "fill:salmon; stroke: Black;"/>    76
  <text x="   702" y="   273">PSZ-AC:4_HEATC</text>
  <rect x="   700" y="   340" width="   200" height="    20" style = "fill:salmon; stroke: Black;"/>    77
  <text x="   702" y="   353">PSZ-AC:5_HEATC</text>
  <rect x="  1950" y="   500" width="   200" height="    20" style = "fill:wheat; stroke: Black;"/>    78
  <text x="  1952" y="   513">SWHSYS1 DEMAND BYPASS PIPE</text>
  <rect x="  1450" y="   460" width="   200" height="    20" style = "fill:wheat; stroke: Black;"/>    79
  <text x="  1452" y="   473">SWHSYS1 DEMAND INLET PIPE</text>
  <rect x="  2450" y="   500" width="   200" height="    20" style = "fill:wheat; stroke: Black;"/>    80
  <text x="  2452" y="   513">SWHSYS1 DEMAND OUTLET PIPE</text>
  <rect x="   700" y="   460" width="   200" height="    20" style = "fill:wheat; stroke: Black;"/>    81
  <text x="   702" y="   473">SWHSYS1 SUPPLY EQUIPMENT BYPASS PIPE</text>
  <rect x="  1200" y="   460" width="   200" height="    20" style = "fill:wheat; stroke: Black;"/>    82
  <text x="  1202" y="   473">SWHSYS1 SUPPLY OUTLET PIPE</text>
  <rect x="   200" y="   420" width="   200" height="    20" style = "fill:springgreen; stroke: Black;"/>    83
  <text x="   202" y="   433">SWHSYS1 PUMP</text>
  <rect x="  1450" y="   100" width="   200" height="    20" style = "fill:chartreuse; stroke: Black;"/>    84
  <text x="  1452" y="   113">PERIMETER_ZN_1</text>
  <rect x="  1450" y="   180" width="   200" height="    20" style = "fill:chartreuse; stroke: Black;"/>    85
  <text x="  1452" y="   193">PERIMETER_ZN_2</text>
  <rect x="  1450" y="   260" width="   200" height="    20" style = "fill:chartreuse; stroke: Black;"/>    86
  <text x="  1452" y="   273">PERIMETER_ZN_3</text>
  <rect x="  1450" y="   340" width="   200" height="    20" style = "fill:chartreuse; stroke: Black;"/>    87
  <text x="  1452" y="   353">PERIMETER_ZN_4</text>
  <line x1="   900" y1="   430" x2="   950" y2="   470" style = "stroke: Black;"/>
  <line x1="  1900" y1="   470" x2="  1950" y2="   470" style = "stroke: Black;"/>
  <line x1="  1900" y1="   470" x2="  1950" y2="   510" style = "stroke: Black;"/>
  <line x1="  2400" y1="   510" x2="  2450" y2="   510" style = "stroke: Black;"/>
  <line x1="   650" y1="   430" x2="   700" y2="   430" style = "stroke: Black;"/>
  <line x1="   650" y1="   430" x2="   700" y2="   470" style = "stroke: Black;"/>
  <line x1="  1150" y1="   470" x2="  1200" y2="   470" style = "stroke: Black;"/>
  <line x1="  2150" y1="   470" x2="  2200" y2="   510" style = "stroke: Black;"/>
  <line x1="  1400" y1="    30" x2="  1450" y2="    30" style = "stroke: Black;"/>
  <line x1="  1400" y1="   110" x2="  1450" y2="   110" style = "stroke: Black;"/>
  <line x1="  1400" y1="   190" x2="  1450" y2="   190" style = "stroke: Black;"/>
  <line x1="  1400" y1="   270" x2="  1450" y2="   270" style = "stroke: Black;"/>
  <line x1="  1400" y1="   350" x2="  1450" y2="   350" style = "stroke: Black;"/>
  <line x1="   400" y1="    30" x2="   450" y2="    30" style = "stroke: Black;"/>
  <line x1="   400" y1="   110" x2="   450" y2="   110" style = "stroke: Black;"/>
  <line x1="   400" y1="   190" x2="   450" y2="   190" style = "stroke: Black;"/>
  <line x1="   400" y1="   270" x2="   450" y2="   270" style = "stroke: Black;"/>
  <line x1="   400" y1="   350" x2="   450" y2="   350" style = "stroke: Black;"/>
  <line x1="  1150" y1="    30" x2="  1200" y2="    30" style = "stroke: Black;"/>
  <line x1="  1150" y1="   110" x2="  1200" y2="   110" style = "stroke: Black;"/>
  <line x1="  1150" y1="   190" x2="  1200" y2="   190" style = "stroke: Black;"/>
  <line x1="  1150" y1="   270" x2="  1200" y2="   270" style = "stroke: Black;"/>
  <line x1="  1150" y1="   350" x2="  1200" y2="   350" style = "stroke: Black;"/>
  <line x1="   650" y1="    30" x2="   700" y2="    30" style = "stroke: Black;"/>
  <line x1="   650" y1="   110" x2="   700" y2="   110" style = "stroke: Black;"/>
  <line x1="   650" y1="   190" x2="   700" y2="   190" style = "stroke: Black;"/>
  <line x1="   650" y1="   270" x2="   700" y2="   270" style = "stroke: Black;"/>
  <line x1="   650" y1="   350" x2="   700" y2="   350" style = "stroke: Black;"/>
  <line x1="   900" y1="    30" x2="   950" y2="    30" style = "stroke: Black;"/>
  <line x1="   900" y1="   110" x2="   950" y2="   110" style = "stroke: Black;"/>
  <line x1="   900" y1="   190" x2="   950" y2="   190" style = "stroke: Black;"/>
  <line x1="   900" y1="   270" x2="   950" y2="   270" style = "stroke: Black;"/>
  <line x1="   900" y1="   350" x2="   950" y2="   350" style = "stroke: Black;"/>
  <line x1="  2150" y1="   510" x2="  2200" y2="   510" style = "stroke: Black;"/>
  <line x1="  1650" y1="   470" x2="  1700" y2="   470" style = "stroke: Black;"/>
  <line x1="   900" y1="   470" x2="   950" y2="   470" style = "stroke: Black;"/>
  <line x1="  1400" y1="   470" x2="  1450" y2="   470" style = "stroke: Black;"/>
  <line x1="   400" y1="   430" x2="   450" y2="   430" style = "stroke: Black;"/>
  <line x1="  1650" y1="    30" x2="  1700" y2="    30" style = "stroke: Black;"/>
  <line x1="  1650" y1="   110" x2="  1700" y2="   110" style = "stroke: Black;"/>
  <line x1="  1650" y1="   190" x2="  1700" y2="   190" style = "stroke: Black;"/>
  <line x1="  1650" y1="   270" x2="  1700" y2="   270" style = "stroke: Black;"/>
  <line x1="  1650" y1="   350" x2="  1700" y2="   350" style = "stroke: Black;"/>
  <line x1="   200" y1="    30" x2="   175" y2="    30" style = "stroke: Black;"/>
  <line x1="   175" y1="    30" x2="   175" y2="     0" style = "stroke: Black;"/>
  <line x1="   175" y1="     0" x2="  1925" y2="     0" style = "stroke: Black;"/>
  <line x1="  1925" y1="     0" x2="  1925" y2="    30" style = "stroke: Black;"/>
  <line x1="  1925" y1="    30" x2="  1900" y2="    30" style = "stroke: Black;"/>
  <line x1="   200" y1="   110" x2="   175" y2="   110" style = "stroke: Black;"/>
  <line x1="   175" y1="   110" x2="   175" y2="    80" style = "stroke: Black;"/>
  <line x1="   175" y1="    80" x2="  1925" y2="    80" style = "stroke: Black;"/>
  <line x1="  1925" y1="    80" x2="  1925" y2="   110" style = "stroke: Black;"/>
  <line x1="  1925" y1="   110" x2="  1900" y2="   110" style = "stroke: Black;"/>
  <line x1="   200" y1="   190" x2="   175" y2="   190" style = "stroke: Black;"/>
  <line x1="   175" y1="   190" x2="   175" y2="   160" style = "stroke: Black;"/>
  <line x1="   175" y1="   160" x2="  1925" y2="   160" style = "stroke: Black;"/>
  <line x1="  1925" y1="   160" x2="  1925" y2="   190" style = "stroke: Black;"/>
  <line x1="  1925" y1="   190" x2="  1900" y2="   190" style = "stroke: Black;"/>
  <line x1="   200" y1="   270" x2="   175" y2="   270" style = "stroke: Black;"/>
  <line x1="   175" y1="   270" x2="   175" y2="   240" style = "stroke: Black;"/>
  <line x1="   175" y1="   240" x2="  1925" y2="   240" style = "stroke: Black;"/>
  <line x1="  1925" y1="   240" x2="  1925" y2="   270" style = "stroke: Black;"/>
  <line x1="  1925" y1="   270" x2="  1900" y2="   270" style = "stroke: Black;"/>
  <line x1="   200" y1="   350" x2="   175" y2="   350" style = "stroke: Black;"/>
  <line x1="   175" y1="   350" x2="   175" y2="   320" style = "stroke: Black;"/>
  <line x1="   175" y1="   320" x2="  1925" y2="   320" style = "stroke: Black;"/>
  <line x1="  1925" y1="   320" x2="  1925" y2="   350" style = "stroke: Black;"/>
  <line x1="  1925" y1="   350" x2="  1900" y2="   350" style = "stroke: Black;"/>
  <line x1="   200" y1="   430" x2="   175" y2="   430" style = "stroke: Black;"/>
  <line x1="   175" y1="   430" x2="   175" y2="   400" style = "stroke: Black;"/>
  <line x1="   175" y1="   400" x2="  2675" y2="   400" style = "stroke: Black;"/>
  <line x1="  2675" y1="   400" x2="  2675" y2="   510" style = "stroke: Black;"/>
  <line x1="  2675" y1="   510" x2="  2650" y2="   510" style = "stroke: Black;"/>
  <text x="   200" y="   960">Unused Non-Parent Objects:</text>
  <text x="   220" y="   980">OutdoorAir:Node</text>
  <text x="   220" y="  1000">OutdoorAir:Node</text>
  <text x="   220" y="  1020">OutdoorAir:Node</text>
  <text x="   220" y="  1040">OutdoorAir:Node</text>
  <text x="   220" y="  1060">OutdoorAir:Node</text>
  <text x="   220" y="  1080">SWHSYS1 LOOP SETPOINT MANAGER</text>
  <text x="   220" y="  1100">SUPAIRTEMP MNGRCORE_ZN</text>
  <text x="   220" y="  1120">SUPAIRTEMP MNGRPERIMETER_ZN_1</text>
  <text x="   220" y="  1140">SUPAIRTEMP MNGRPERIMETER_ZN_2</text>
  <text x="   220" y="  1160">SUPAIRTEMP MNGRPERIMETER_ZN_3</text>
  <text x="   220" y="  1180">SUPAIRTEMP MNGRPERIMETER_ZN_4</text>
  <text x="   220" y="  1200">PSZ-AC:1_COOLC SAT MANAGER</text>
  <text x="   220" y="  1220">PSZ-AC:1_HEATC MIXEDAIR MANAGER</text>
  <text x="   220" y="  1240">PSZ-AC:1_OAMIXED AIR TEMP MANAGER</text>
  <text x="   220" y="  1260">PSZ-AC:2_COOLC SAT MANAGER</text>
  <text x="   220" y="  1280">PSZ-AC:2_HEATC MIXEDAIR MANAGER</text>
  <text x="   220" y="  1300">PSZ-AC:2_OAMIXED AIR TEMP MANAGER</text>
  <text x="   220" y="  1320">PSZ-AC:3_COOLC SAT MANAGER</text>
  <text x="   220" y="  1340">PSZ-AC:3_HEATC MIXEDAIR MANAGER</text>
  <text x="   220" y="  1360">PSZ-AC:3_OAMIXED AIR TEMP MANAGER</text>
  <text x="   220" y="  1380">PSZ-AC:4_COOLC SAT MANAGER</text>
  <text x="   220" y="  1400">PSZ-AC:4_HEATC MIXEDAIR MANAGER</text>
  <text x="   220" y="  1420">PSZ-AC:4_OAMIXED AIR TEMP MANAGER</text>
  <text x="   220" y="  1440">PSZ-AC:5_COOLC SAT MANAGER</text>
  <text x="   220" y="  1460">PSZ-AC:5_HEATC MIXEDAIR MANAGER</text>
  <text x="   220" y="  1480">PSZ-AC:5_OAMIXED AIR TEMP MANAGER</text>
  <text x="   220" y="  1500">PSZ-AC:1_OA_CONTROLLER</text>
  <text x="   220" y="  1520">PSZ-AC:2_OA_CONTROLLER</text>
  <text x="   220" y="  1540">PSZ-AC:3_OA_CONTROLLER</text>
  <text x="   220" y="  1560">PSZ-AC:4_OA_CONTROLLER</text>
  <text x="   220" y="  1580">PSZ-AC:5_OA_CONTROLLER</text>
  <text x="   200" y="  1620">
The following are not supported: objects related to controls, AirTerminal:SingleDuct:Uncontrolled, or ZoneHVAC:IdealLoadsAirSystem</text>
</g>
</svg>
